<svg xmlns="http://www.w3.org/2000/svg" width="183.937" height="31.899" viewBox="0 0 183.937 31.899">
  <g id="Group_39283" data-name="Group 39283" transform="translate(-100 -29)">
    <g id="Group_39282" data-name="Group 39282" transform="translate(100 30)">
      <path id="Path_68065" data-name="Path 68065" d="M529.949,376.924l-.6-.942c-1.871-2.93-3.762-5.861-5.6-8.813a57.46,57.46,0,0,1-3.816-6.919,8.472,8.472,0,0,1-.785-4.05,8.9,8.9,0,0,1,2.918-6.047,11,11,0,0,1,6.2-2.878,11.521,11.521,0,0,1,5.842.709,10.6,10.6,0,0,1,3.128,1.86,9.017,9.017,0,0,1,3.16,5.663,8.245,8.245,0,0,1-1.047,5.384c-1.258,2.212-2.554,4.4-3.836,6.607-.051.089-.122.168-.224.308-.208-.308-.392-.569-.564-.836-.859-1.32-1.712-2.642-2.577-3.959a.449.449,0,0,1-.031-.54c.713-1.214,1.388-2.445,2.118-3.649a4.164,4.164,0,0,0-.836-5.313,5.5,5.5,0,0,0-7.062-.074,4.1,4.1,0,0,0-1.439,4.18,2.761,2.761,0,0,0,.27.7c1.34,2.566,2.858,5.051,4.417,7.516,1.147,1.818,2.273,3.646,3.418,5.467a.393.393,0,0,1,.026.463q-1.474,2.515-2.93,5.033A.942.942,0,0,1,529.949,376.924Z" transform="translate(-504.222 -347.166)" fill="#217aba"/>
      <path id="Path_68066" data-name="Path 68066" d="M437.039,377.258c-.109-.167-.2-.295-.284-.429l-3.666-6.106q-2.776-4.6-5.54-9.206-1.96-3.257-3.925-6.515c-.345-.574-.691-1.149-1.047-1.718a.463.463,0,0,1-.02-.544c.967-1.639,1.919-3.287,2.876-4.935a2.665,2.665,0,0,1,.179-.234,3.1,3.1,0,0,1,.23.308q1.5,2.5,3,5,2.354,3.917,4.7,7.832c1.069,1.783,2.128,3.57,3.2,5.353s2.144,3.563,3.216,5.344c.069.116.123.238.2.347a.383.383,0,0,1,0,.474q-1.505,2.455-3,4.915A1.065,1.065,0,0,1,437.039,377.258Z" transform="translate(-422.478 -347.508)" fill="#418b47"/>
      <path id="Path_68067" data-name="Path 68067" d="M574.417,393.837a3.054,3.054,0,0,1-3.112,3,3.016,3.016,0,1,1,.025-6.03A3.049,3.049,0,0,1,574.417,393.837Z" transform="translate(-545.742 -384.078)" fill="#418b47"/>
    </g>
    <g id="Wakapadi_letters" transform="translate(142.864 29)">
      <path id="Path_68068" data-name="Path 68068" d="M264.166,574.972H259.55c.555-3.4,2.95-5.072,7.182-5.072,5.072,0,7.634,1.666,7.739,5.072v6.245c0,5.072-3.053,7.322-8.016,7.669-4.407.347-7.455-1.693-7.455-5.761.1-4.407,3.3-5.586,7.946-6.038,1.978-.243,2.983-.832,2.983-1.839-.1-1.041-1.075-1.561-2.983-1.561C265.31,573.688,264.408,574.105,264.166,574.972Zm5.828,6.039v-1.7a19.9,19.9,0,0,1-3.677,1.109c-1.839.347-2.777,1.214-2.777,2.568a2.056,2.056,0,0,0,2.325,2.151A3.8,3.8,0,0,0,269.994,581.012Z" transform="translate(-233.004 -563.824)" fill="#418b47"/>
      <path id="Path_68069" data-name="Path 68069" d="M375.224,533.983V544.86l5.691-6.974h5.548l-6.35,7.277,6.42,11.657h-5.548l-3.262-6.459q-.885-1.672-1.769-1.671a.887.887,0,0,0-.729.965v7.165H370.61V531.57H373A2.352,2.352,0,0,1,375.224,533.983Z" transform="translate(-326.922 -531.57)" fill="#418b47"/>
      <path id="Path_68070" data-name="Path 68070" d="M479.979,574.972h-4.614c.555-3.4,2.95-5.072,7.182-5.072,5.072,0,7.634,1.666,7.739,5.072v6.245c0,5.072-3.053,7.322-8.016,7.669-4.407.347-7.46-1.7-7.46-5.761.1-4.407,3.3-5.586,7.946-6.038,1.977-.243,2.983-.832,2.983-1.839-.1-1.041-1.075-1.561-2.983-1.561C481.125,573.688,480.229,574.105,479.979,574.972Zm5.83,6.039v-1.7a19.94,19.94,0,0,1-3.678,1.109c-1.84.347-2.777,1.214-2.777,2.568a2.056,2.056,0,0,0,2.325,2.151A3.8,3.8,0,0,0,485.809,581.012Z" transform="translate(-414.605 -563.824)" fill="#418b47"/>
      <path id="Path_68071" data-name="Path 68071" d="M591.064,593.8a2.025,2.025,0,0,1-2.291,2.291H586.45V578.529c.242-5.483,3.088-8.189,8.6-8.189q8.539,0,8.537,9.265c0,6.245-2.43,9.473-7.322,9.645a5.727,5.727,0,0,1-5.205-2.845Zm3.921-8.675c2.5,0,3.782-1.769,3.885-5.309,0-3.712-1.317-5.548-3.955-5.548s-3.887,1.84-3.852,5.548C591.2,583.359,592.488,585.128,594.986,585.128Z" transform="translate(-508.549 -564.195)" fill="#217aba"/>
      <path id="Path_68072" data-name="Path 68072" d="M710.675,574.972h-4.621c.556-3.4,2.95-5.072,7.184-5.072,5.072,0,7.634,1.666,7.737,5.072v6.245c0,5.072-3.053,7.322-8.014,7.669-4.407.347-7.461-1.7-7.461-5.761.1-4.407,3.3-5.586,7.946-6.038,1.978-.243,2.985-.832,2.985-1.839-.1-1.041-1.076-1.561-2.985-1.561C711.82,573.688,710.918,574.105,710.675,574.972Zm5.829,6.039v-1.7a19.881,19.881,0,0,1-3.678,1.109c-1.839.347-2.776,1.214-2.776,2.568a2.055,2.055,0,0,0,2.326,2.151A3.8,3.8,0,0,0,716.5,581.012Z" transform="translate(-608.728 -563.824)" fill="#217aba"/>
      <path id="Path_68073" data-name="Path 68073" d="M954.921,531.85c1.717,0,2.536.784,2.5,2.317v1.39h-5.19V531.85Z" transform="translate(-816.348 -531.806)" fill="#418b47"/>
      <path id="Path_68074" data-name="Path 68074" d="M835.159,535.187v-1.019c.04-1.533-.773-2.317-2.477-2.317h-2.666v8.869a6.749,6.749,0,0,0-5.892-2.853c-5.5.173-8.233,3.368-8.233,9.62,0,6.112,3.2,9.2,9.6,9.306,6.439.035,9.677-2.709,9.677-8.23V535.231A.139.139,0,0,1,835.159,535.187Zm-9.6,17.689c-2.966,0-4.37-1.877-4.332-5.592.159-3.543,1.6-5.278,4.41-5.278s4.253,1.743,4.37,5.278C830.015,551,828.526,552.875,825.562,552.875Z" transform="translate(-701.62 -531.806)" fill="#217aba"/>
      <path id="Path_68075" data-name="Path 68075" d="M954.921,568.495c1.679,0,2.5.748,2.5,2.281v16.577h-5.19V568.49Z" transform="translate(-816.348 -562.638)" fill="#217aba"/>
      <path id="Path_68076" data-name="Path 68076" d="M121.709,568.57l-5.356,19.274h-5.026l-2.913-13.808-3.062,13.808h-5.072L95,568.57h4.914l3.061,13.371,2.769-13.371h5.137L113.5,581.94l2.622-11.586a2.277,2.277,0,0,1,2.368-1.785Z" transform="translate(-95 -562.705)" fill="#418b47"/>
    </g>
  </g>
</svg>
